<?xml version="1.0" encoding="UTF-8" standalone="no"?>
<svg width="20px" height="20px" viewBox="0 0 20 20" version="1.1" xmlns="http://www.w3.org/2000/svg" xmlns:xlink="http://www.w3.org/1999/xlink">
    <!-- Generator: sketchtool 40.3 (33839) - http://www.bohemiancoding.com/sketch -->
    <title>8E9921BB-534E-4D4C-8A89-5F4785E716B2</title>
    <desc>Created with sketchtool.</desc>
    <defs></defs>
    <g id="Feedback-Messages" stroke="none" stroke-width="1" fill="none" fill-rule="evenodd">
        <g id="Error-loading-content" transform="translate(-987.000000, -1166.000000)" fill="#4A4A4A">
            <g id="Group-2" transform="translate(65.000000, 1010.000000)">
                <g transform="translate(15.000000, 13.000000)" id="Shape">
                    <path d="M918.178738,152.992143 L926.755315,144.440443 C927.081145,144.115743 927.081561,143.588312 926.756565,143.262779 C926.431568,142.937246 925.903657,142.936829 925.578244,143.26153 L917.00125,151.81323 L908.441756,143.244463 C908.11676,142.918929 907.589265,142.918513 907.263435,143.243214 C906.937605,143.567914 906.937189,144.095345 907.262185,144.420878 L915.821262,152.989645 L907.244685,161.541345 C906.918855,161.866045 906.918439,162.393476 907.243435,162.719009 C907.40635,162.882192 907.619681,162.963367 907.833429,162.963367 C908.046344,162.963367 908.259258,162.882608 908.422173,162.720258 L916.999167,154.168142 L925.576994,162.755642 C925.739492,162.918825 925.952823,163 926.166571,163 C926.379485,163 926.5924,162.919241 926.755315,162.756891 C927.081145,162.43219 927.081561,161.90476 926.756565,161.579226 L918.178738,152.992143 L918.178738,152.992143 Z"></path>
                </g>
            </g>
        </g>
    </g>
</svg>