<svg height="16" viewBox="0 0 16 16" width="16" xmlns="http://www.w3.org/2000/svg"><path d="m8 1c-3.88 0-7 3.14-7 7 0 3.88 3.12 7 7 7 3.86 0 7-3.12 7-7 0-3.86-3.14-7-7-7zm0 12.25c-.65 0-1.17-.52-1.17-1.17 0-.64.52-1.16 1.17-1.16s1.17.52 1.17 1.16c0 .65-.52 1.17-1.17 1.17zm.88-4.08v.29h-1.75v-.58c0-1.75 2.33-1.75 2.33-2.92 0-.58-.58-1.17-1.46-1.17-.87 0-1.75.88-1.75.88l-1.17-1.17s1.17-1.46 2.92-1.46c1.76 0 3.21 1.17 3.21 2.92 0 2.33-2.33 2.33-2.33 3.21z" fill="#959da6" fill-rule="evenodd"/></svg>