<svg width="25" height="21" viewBox="-1 -5 26 26" xmlns="http://www.w3.org/2000/svg"><g fill="none" fill-rule="evenodd"><path d="M-3-5h32v32H-3z"/><path d="M2 14.999c-.902-.014-2-.188-2-2.307V4.97c.318.36.679.678 1.07.952l.93.652V15zM18.988 2H5a3 3 0 0 0-2.998 2.88l-.178-.13C1.07 4.226 0 2.989 0 1.993 0 .92.562 0 1.696 0h15.608C18.226 0 19 .788 19 1.751a2.6 2.6 0 0 1-.012.249zM5 17.999c-.902-.014-2-.188-2-2.307V7.97c.318.36.679.678 1.07.952l.93.652V18zM21.988 5H8a3 3 0 0 0-2.998 2.88l-.178-.13C4.07 7.226 3 5.989 3 4.993 3 3.92 3.562 3 4.696 3h15.608C21.226 3 22 3.788 22 4.751a2.6 2.6 0 0 1-.012.249zM25 10.97v7.722C25 21 23.698 21 22.765 21H8.235C7.302 21 6 21 6 18.692V10.97c.318.36.679.678 1.07.952 1.76 1.237 3.542 2.474 5.27 3.776.891.679 1.994 1.51 3.15 1.51h.02c1.156 0 2.259-.831 3.15-1.51 1.728-1.291 3.51-2.54 5.28-3.776A6.309 6.309 0 0 0 25 10.97zm0-3.219c0 1.226-.88 2.332-1.813 3-1.654 1.182-3.319 2.364-4.962 3.557-.69.493-1.856 1.5-2.714 1.5h-.022c-.858 0-2.025-1.007-2.714-1.5-1.643-1.193-3.308-2.375-4.951-3.557C7.07 10.225 6 8.988 6 7.992 6 6.92 6.562 6 7.696 6h15.608C24.226 6 25 6.788 25 7.751z" fill="#A393A1" fill-rule="nonzero"/></g></svg>