<svg height="24" viewBox="0 0 24 24" width="24" xmlns="http://www.w3.org/2000/svg"><path d="m15.8571582 11.1428478c0 2.7566997-2.2433063 5.0000059-5.000006 5.0000059-2.75669969 0-5.00000594-2.2433062-5.00000594-5.0000059 0-2.75669974 2.24330625-5.00000598 5.00000594-5.00000598 2.7566997 0 5.000006 2.24330624 5.000006 5.00000598zm5.7142925 9.2857253c0-.3794647-.1562502-.7477687-.4129469-1.0044655l-3.8281296-3.8281295c.904019-1.3058051 1.3839302-2.868307 1.3839302-4.4531303 0-4.34152306-3.5156291-7.85715225-7.8571522-7.85715225-4.34152301 0-7.8571522 3.51562919-7.8571522 7.85715225 0 4.341523 3.51562919 7.8571522 7.8571522 7.8571522 1.5848233 0 3.1473252-.4799113 4.4531303-1.3839302l3.8281296 3.8169688c.2566967.2678575.6250007.4241077 1.0044655.4241077.7812509 0 1.4285731-.6473222 1.4285731-1.4285732z" fill="#a18ca0" fill-rule="evenodd"/></svg>